<svg xmlns="http://www.w3.org/2000/svg" width="1170" height="300" viewBox="0 0 1170 300">
	<g data-name="should-svg" transform="translate(-375 -734)">
		<rect width="1170" height="300" fill="#74b1e0" data-name="should-svg-rect" rx="10" transform="translate(375 734)"/>
		<path fill="#fff" d="M767.509 1034h-298.4a7.048 7.048 0 01.153-7.535 3.974 3.974 0 013.182-1.809 3.85 3.85 0 012.965 1.527 7 7 0 01.364 7.817h291.736zm-326.857 0h-9.144a7.019 7.019 0 01.9-5.85 3.976 3.976 0 013.183-1.809 3.85 3.85 0 012.965 1.527 6.943 6.943 0 011.117 6.132h.98zm-46.257 0a6.752 6.752 0 011.163-4.166 3.974 3.974 0 013.182-1.809 3.852 3.852 0 012.966 1.528 6.674 6.674 0 011.377 4.447h-8.689zm-14.722-17.875a3.672 3.672 0 01-2.51-1.042 5.014 5.014 0 01-.456-.486 6.99 6.99 0 01-.215-8.04 3.974 3.974 0 013.182-1.809 3.849 3.849 0 012.966 1.528 6.994 6.994 0 01.214 8.04 3.971 3.971 0 01-3.181 1.809zm36.85-1.685a3.667 3.667 0 01-2.51-1.043 4.816 4.816 0 01-.454-.484 6.993 6.993 0 01-.215-8.041 3.974 3.974 0 013.182-1.809 3.853 3.853 0 012.966 1.528 6.991 6.991 0 01.213 8.04 3.971 3.971 0 01-3.186 1.809zm36.85-1.685a3.67 3.67 0 01-2.51-1.042 4.825 4.825 0 01-.455-.485 6.992 6.992 0 01-.215-8.04 3.973 3.973 0 013.18-1.809 3.852 3.852 0 012.966 1.528 6.989 6.989 0 01.213 8.039 3.972 3.972 0 01-3.179 1.809zm36.851-1.684a3.674 3.674 0 01-2.51-1.042 5.161 5.161 0 01-.455-.486 6.99 6.99 0 01-.214-8.04 3.97 3.97 0 013.182-1.809 3.852 3.852 0 012.966 1.528 6.99 6.99 0 01.213 8.039 3.97 3.97 0 01-3.183 1.81zm-92.772-19.908a3.673 3.673 0 01-2.51-1.042 4.864 4.864 0 01-.455-.486 6.991 6.991 0 01-.214-8.04 3.973 3.973 0 013.182-1.809 3.851 3.851 0 012.965 1.528 6.99 6.99 0 01.215 8.04 3.972 3.972 0 01-3.184 1.809zm36.851-1.685a3.673 3.673 0 01-2.51-1.042 4.815 4.815 0 01-.456-.486 6.989 6.989 0 01-.214-8.039 3.972 3.972 0 013.182-1.81 3.848 3.848 0 012.965 1.528 6.994 6.994 0 01.215 8.041 3.973 3.973 0 01-3.183 1.809zm36.851-1.684a3.672 3.672 0 01-2.511-1.043 4.747 4.747 0 01-.455-.485 6.99 6.99 0 01-.214-8.04 3.973 3.973 0 013.182-1.809 3.854 3.854 0 012.966 1.527 7 7 0 01.214 8.041 3.971 3.971 0 01-3.182 1.81zM415.233 966.2a3.672 3.672 0 01-2.511-1.043 4.826 4.826 0 01-.454-.485 6.99 6.99 0 01-.214-8.04 3.974 3.974 0 013.182-1.809 3.855 3.855 0 012.966 1.528 6.994 6.994 0 01.214 8.04 3.972 3.972 0 01-3.183 1.809zm36.851-1.685a3.671 3.671 0 01-2.51-1.042 4.931 4.931 0 01-.455-.485 6.992 6.992 0 01-.214-8.041 3.97 3.97 0 013.181-1.808 3.853 3.853 0 012.965 1.527 6.992 6.992 0 01.216 8.04 3.974 3.974 0 01-3.182 1.811zm-19.069-23.275a3.666 3.666 0 01-2.509-1.042 4.868 4.868 0 01-.455-.486 6.99 6.99 0 01-.216-8.04 3.973 3.973 0 013.183-1.808 3.851 3.851 0 012.965 1.527 6.99 6.99 0 01.213 8.04 3.971 3.971 0 01-3.181 1.809zm167.966-31.374c-14.464 0-28.474-5.619-40.517-16.251L393.325 734h338.662l-70.771 133.979c-13.513 26.221-36.031 41.885-60.235 41.887z" opacity=".1"/>
	</g>
</svg>
