<svg id="Component_7_1" data-name="Component 7 – 1" xmlns="http://www.w3.org/2000/svg" width="65" height="65" viewBox="0 0 65 65">
  <circle id="Circle" cx="32.5" cy="32.5" r="32.5" fill="#fff"/>
  <g id="loupe" transform="translate(16.751 17.726)">
    <g id="Group_5951" data-name="Group 5951" transform="translate(0.96)">
      <path id="Path_3214" data-name="Path 3214" d="M29.946,23.73,24.99,18.773a13.673,13.673,0,0,0,1.5-6.008A12.766,12.766,0,1,0,13.726,25.532a13.673,13.673,0,0,0,6.008-1.5l4.956,4.956a3.63,3.63,0,0,0,5.257,0A3.914,3.914,0,0,0,29.946,23.73Zm-16.22-1.2a9.762,9.762,0,1,1,9.762-9.762A9.743,9.743,0,0,1,13.726,22.528Z" transform="translate(-0.96)" fill="#74b1e0"/>
    </g>
  </g>
</svg>
